REM GENRE Jazz
REM DATE 1989
REM DISCID 620CE706
REM COMMENT "ExactAudioCopy v0.99pb4"
PERFORMER "Tim Berne"
TITLE "Fractured Fairy Tales"
FILE "Tim Berne - Fractured Fairy Tales.flac" WAVE
  TRACK 01 AUDIO
    TITLE "Now Then"
    PERFORMER "Tim Berne"
    INDEX 01 00:00:00
  TRACK 02 AUDIO
    TITLE "SEP"
    PERFORMER "Tim Berne"
    INDEX 00 03:13:20
    INDEX 01 03:16:20
  TRACK 03 AUDIO
    TITLE "Hong Kong Sad Song / More Coffee"
    PERFORMER "Tim Berne"
    INDEX 00 11:21:72
    INDEX 01 11:26:20
  TRACK 04 AUDIO
    TITLE "Evolution of a Pearl (Part 1 / Part 2)"
    PERFORMER "Tim Berne"
    INDEX 00 23:03:12
    INDEX 01 23:07:25
    INDEX 02 34:22:34
  TRACK 05 AUDIO
    TITLE "Lightnin' Bug Boute"
    PERFORMER "Tim Berne"
    INDEX 00 42:40:52
    INDEX 01 42:44:20
  TRACK 06 AUDIO
    TITLE "The Telex Blues"
    PERFORMER "Tim Berne"
    INDEX 00 43:23:15
    INDEX 01 43:26:27
